HIERARCHY
ROOT Hips
{
	OFFSET 55.310501 45.591206 43.872097
	CHANNELS 6 Xposition Yposition Zposition Zrotation Xrotation Yrotation
	JOINT Chest
	{
		OFFSET -0.153500 1.163101 7.852402
		CHANNELS 6 Xposition Yposition Zposition Zrotation Xrotation Yrotation
		JOINT Chest2
		{
			OFFSET 0.000000 0.000000 3.343300
			CHANNELS 6 Xposition Yposition Zposition Zrotation Xrotation Yrotation
			JOINT Neck
			{
				OFFSET 0.000000 0.000000 7.785500
				CHANNELS 6 Xposition Yposition Zposition Zrotation Xrotation Yrotation
				JOINT Head
				{
					OFFSET 0.000000 0.000000 2.173901
					CHANNELS 6 Xposition Yposition Zposition Zrotation Xrotation Yrotation
					End Site
					{
						OFFSET 0.000000 0.000000 10.528198
					}
				}
			}
			JOINT LeftCollar
			{
				OFFSET 2.676300 -1.652401 4.938301
				CHANNELS 6 Xposition Yposition Zposition Zrotation Xrotation Yrotation
				JOINT LeftShoulder
				{
					OFFSET 4.299000 0.000000 0.000000
					CHANNELS 6 Xposition Yposition Zposition Zrotation Xrotation Yrotation
					JOINT LeftElbow
					{
						OFFSET 0.000000 0.000000 -10.245102
						CHANNELS 6 Xposition Yposition Zposition Zrotation Xrotation Yrotation
						JOINT LeftWrist
						{
							OFFSET 0.000000 0.000000 -12.703300
							CHANNELS 6 Xposition Yposition Zposition Zrotation Xrotation Yrotation
							End Site
							{
								OFFSET 0.000000 0.000000 -2.173901
							}
						}
					}
				}
			}
			JOINT RightCollar
			{
				OFFSET -2.534599 -1.686401 5.195000
				CHANNELS 6 Xposition Yposition Zposition Zrotation Xrotation Yrotation
				JOINT RightShoulder
				{
					OFFSET -4.144100 0.000000 0.000000
					CHANNELS 6 Xposition Yposition Zposition Zrotation Xrotation Yrotation
					JOINT RightElbow
					{
						OFFSET 0.000000 0.000000 -10.116501
						CHANNELS 6 Xposition Yposition Zposition Zrotation Xrotation Yrotation
						JOINT RightWrist
						{
							OFFSET 0.000000 0.000000 -12.937801
							CHANNELS 6 Xposition Yposition Zposition Zrotation Xrotation Yrotation
							End Site
							{
								OFFSET 0.000000 0.000000 -2.173901
							}
						}
					}
				}
			}
		}
	}
	JOINT LeftHip
	{
		OFFSET 2.175598 0.064499 -2.662899
		CHANNELS 6 Xposition Yposition Zposition Zrotation Xrotation Yrotation
		JOINT LeftKnee
		{
			OFFSET 0.000000 -0.000004 -18.585800
			CHANNELS 6 Xposition Yposition Zposition Zrotation Xrotation Yrotation
			JOINT LeftAnkle
			{
				OFFSET 0.000000 0.000000 -18.979500
				CHANNELS 6 Xposition Yposition Zposition Zrotation Xrotation Yrotation
				End Site
				{
					OFFSET 0.000000 -9.264000 0.000000
				}
			}
		}
	}
	JOINT RightHip
	{
		OFFSET -2.092400 -0.058102 -2.581200
		CHANNELS 6 Xposition Yposition Zposition Zrotation Xrotation Yrotation
		JOINT RightKnee
		{
			OFFSET 0.000000 -0.000004 -18.665001
			CHANNELS 6 Xposition Yposition Zposition Zrotation Xrotation Yrotation
			JOINT RightAnkle
			{
				OFFSET 0.000000 0.000000 -18.566601
				CHANNELS 6 Xposition Yposition Zposition Zrotation Xrotation Yrotation
				End Site
				{
					OFFSET 0.000000 -8.497601 0.000000
				}
			}
		}
	}
}
MOTION
Frames: 6
Frame Time: 0.041667
41.809799 39.901100 22.004395 715.734649 6.588203 -6.289152 -0.153509 1.163099 7.852407 2.191290 2.316625 16.713480 0.000005 0.000006 3.343305 -1.825160 -7.374577 -0.093353 -0.000002 0.000001 7.785502 50.505738 -6.630529 -15.108127 0.000000 0.000012 2.173904 7.229046 -4.010433 9.149310 2.676307 -1.652394 4.938302 -2.731265 3.480653 20.884726 4.298994 -0.000004 -0.000005 -9.442101 -14.436127 -120.873475 -0.000005 0.000000 -10.245102 247.501358 182.061233 179.891118 0.000001 -0.000010 -12.703306 243.915454 182.449270 183.284971 -2.534603 -1.686401 5.194998 -0.482981 6.908572 17.140717 -4.144098 0.000000 0.000007 56.072083 -19.616464 155.736864 0.000004 -0.000008 -10.116495 -77.751315 -13.380471 -21.935320 0.000008 -0.000007 -12.937799 -251.989584 -172.165122 99.251740 2.175597 0.064495 -2.662890 -178.667176 14.757585 69.438763 -0.000005 -0.000001 -18.585796 -201.142733 -185.366799 -190.765681 -0.000011 0.000002 -18.979502 538.253768 44.376514 73.361914 -2.092402 -0.058104 -2.581194 198.217704 -0.369631 -94.437378 0.000001 0.000006 -18.665003 -880.996212 -0.555366 -134.147442 -0.000004 -0.000001 -18.566603 694.869295 -5.556569 -33.102085
41.575905 39.914902 21.999693 715.463190 6.607635 -6.432151 -0.153492 1.163107 7.852405 2.417886 2.434059 16.905796 -0.000000 -0.000001 3.343304 -2.070107 -7.352652 -0.126100 -0.000005 0.000004 7.785513 50.527287 -6.579054 -15.136116 -0.000000 0.000003 2.173902 7.213049 -3.987617 9.265538 2.676288 -1.652393 4.938307 -2.721493 3.510916 21.048883 4.299006 -0.000005 0.000000 -9.189451 -13.833163 -121.020966 -0.000004 -0.000004 -10.245099 248.400812 181.971211 179.932250 0.000002 -0.000002 -12.703298 243.683063 182.462821 183.321103 -2.534605 -1.686390 5.195006 -0.555832 6.896421 17.084941 -4.144100 -0.000002 -0.000006 56.075877 -19.606931 155.655749 0.000007 -0.000005 -10.116499 -77.745161 -13.392967 -21.802882 0.000001 -0.000010 -12.937796 -252.037013 -172.210202 99.253939 2.175603 0.064503 -2.662898 -178.481818 14.778011 69.273145 0.000000 0.000006 -18.585812 -201.570221 -185.590406 -190.773618 0.000003 -0.000002 -18.979500 538.828597 45.776095 73.244865 -2.092396 -0.058098 -2.581196 198.832312 -0.847376 -94.089647 0.000000 0.000008 -18.665003 -881.127680 -0.113946 -134.479718 -0.000002 -0.000006 -18.566601 695.362653 -5.408045 -32.196866
41.350204 39.925205 21.987297 715.055236 6.581845 -6.629089 -0.153494 1.163100 7.852407 2.760236 2.640284 17.177026 0.000006 -0.000004 3.343306 -2.368660 -7.355410 -0.169017 -0.000004 -0.000010 7.785503 50.573845 -6.561130 -15.145818 0.000006 0.000010 2.173910 7.305850 -3.830873 8.870909 2.676287 -1.652408 4.938296 -2.718561 3.407675 21.213700 4.299002 0.000003 -0.000001 -8.712703 -12.953022 -121.128542 -0.000006 0.000000 -10.245111 249.570468 181.870562 179.961783 0.000004 -0.000003 -12.703290 243.460945 182.441647 183.368900 -2.534603 -1.686408 5.194997 -0.839997 6.673303 16.977883 -4.144104 -0.000002 -0.000001 56.575867 -19.497648 155.558542 0.000007 0.000003 -10.116508 -77.491372 -13.377106 -21.598088 0.000009 -0.000011 -12.937787 -252.051083 -172.193918 99.104091 2.175599 0.064499 -2.662892 -178.107428 14.833340 69.045802 0.000002 -0.000004 -18.585800 -201.873563 -185.662956 -190.811211 -0.000006 -0.000002 -18.979502 539.105028 46.744479 73.135733 -2.092393 -0.058104 -2.581193 199.591761 -1.450679 -93.809903 0.000005 -0.000002 -18.665007 -881.337394 0.219353 -134.808659 -0.000003 -0.000003 -18.566597 695.710993 -5.483554 -31.855630
41.127708 39.937199 21.970894 714.590346 6.538930 -6.868880 -0.153500 1.163114 7.852403 3.130678 2.909767 17.553783 -0.000001 -0.000000 3.343307 -2.723789 -7.375930 -0.223451 0.000003 -0.000005 7.785503 50.610687 -6.628170 -15.229155 0.000002 0.000002 2.173902 7.324175 -3.708036 8.901695 2.676299 -1.652397 4.938306 -2.405181 3.271435 21.234276 4.299000 -0.000001 -0.000013 -8.584527 -12.115854 -121.069187 -0.000004 0.000003 -10.245103 250.362770 181.839006 179.872895 0.000000 -0.000004 -12.703301 243.473294 182.422537 183.436423 -2.534600 -1.686398 5.194997 -1.271730 6.277902 16.853765 -4.144098 0.000001 -0.000001 57.204207 -19.313349 155.318720 0.000001 -0.000004 -10.116503 -77.315829 -13.339041 -21.380837 0.000014 -0.000004 -12.937789 -251.953767 -172.089225 98.768292 2.175595 0.064502 -2.662893 -177.694598 14.874451 68.796835 -0.000002 -0.000004 -18.585804 -202.027078 -185.552689 -190.900700 -0.000000 0.000013 -18.979502 539.177537 47.269270 73.002360 -2.092401 -0.058090 -2.581193 200.459864 -2.188799 -93.598290 0.000003 0.000001 -18.665003 -881.685788 0.483056 -135.148284 -0.000004 -0.000002 -18.566599 695.942673 -5.645569 -31.720730
40.910408 39.948898 21.949986 714.070487 6.192644 -7.095539 -0.153492 1.163105 7.852406 3.498455 3.533441 17.916930 0.000005 0.000005 3.343305 -3.151061 -7.427693 -0.361679 -0.000006 -0.000006 7.785501 50.706454 -6.700199 -15.168214 0.000003 -0.000003 2.173902 7.280343 -3.603229 8.851173 2.676301 -1.652401 4.938306 -1.905452 3.060581 21.345811 4.299004 0.000007 -0.000004 -8.418971 -11.424098 -121.150412 -0.000009 -0.000002 -10.245110 251.148351 181.748424 180.056914 0.000001 0.000000 -12.703299 243.355542 182.423643 183.495983 -2.534595 -1.686401 5.195002 -2.293699 5.428067 16.618188 -4.144098 -0.000004 -0.000002 58.605195 -18.803687 155.065812 0.000009 0.000001 -10.116507 -77.051521 -13.198958 -21.119983 0.000008 -0.000007 -12.937794 -251.771701 -172.095782 98.531476 2.175598 0.064505 -2.662895 -177.221033 14.693533 68.594217 -0.000009 0.000005 -18.585808 -202.082703 -185.319425 -191.032851 -0.000004 0.000009 -18.979504 539.008476 47.288757 72.894805 -2.092403 -0.058100 -2.581197 201.369768 -3.237042 -93.287714 0.000001 0.000005 -18.665012 -882.194337 0.605530 -135.462937 -0.000001 -0.000008 -18.566601 695.970923 -5.877895 -31.855688
40.698502 39.958904 21.925692 713.502707 6.080307 -7.304983 -0.153502 1.163107 7.852407 3.920534 3.987892 18.265092 0.000004 0.000009 3.343300 -3.626262 -7.500123 -0.456470 0.000003 0.000004 7.785507 50.842381 -6.885952 -15.117024 0.000000 0.000006 2.173902 7.161978 -3.507115 8.848987 2.676291 -1.652403 4.938311 -1.306527 2.807397 21.284195 4.298990 0.000007 -0.000002 -8.624131 -10.754481 -121.038042 -0.000007 -0.000009 -10.245107 251.541879 181.679999 179.914054 -0.000008 -0.000001 -12.703282 243.359148 182.456797 183.566361 -2.534600 -1.686404 5.195006 -2.051443 5.538883 16.569614 -4.144098 -0.000007 -0.000004 58.517885 -18.855823 155.175560 -0.000005 0.000001 -10.116505 -76.979237 -12.925687 -20.881893 0.000003 -0.000003 -12.937798 -251.441666 -172.069609 98.135332 2.175599 0.064504 -2.662897 -176.582479 14.821497 68.395226 -0.000007 -0.000000 -18.585802 -202.027898 -184.997491 -191.171176 -0.000005 0.000010 -18.979509 538.570142 46.820062 72.836905 -2.092399 -0.058098 -2.581195 202.356539 -4.083902 -93.013339 -0.000002 0.000005 -18.665009 -882.838287 0.589956 -135.716555 -0.000001 -0.000002 -18.566595 695.796562 -6.160551 -32.185904
